<?xml version="1.0" encoding="utf-8"?>
<!-- Generator: Adobe Illustrator 19.0.0, SVG Export Plug-In . SVG Version: 6.00 Build 0)  -->
<svg version="1.1" id="Layer_1" xmlns="http://www.w3.org/2000/svg" xmlns:xlink="http://www.w3.org/1999/xlink" x="0px" y="0px"
	 viewBox="-499 0 800 800" style="enable-background:new -499 0 800 800;" xml:space="preserve">
<style type="text/css">
	.st0{fill:#FFFFFF;}
</style>
<g id="XMLID_272_">
	<path id="XMLID_305_" class="st0" d="M257.9,480.8C255.4,428,243.7,376,224.2,327c-7.9-20-15.8-46-34-57.1
		c-22.7-13.8-55.7-20.3-80.9-29.5c-24.9-9.1-49.8-18.2-74.6-27.3C1.6,201-12,210.5-45.2,222.6c-51.7,18.9-104.7,35.8-155.5,56.9
		c27.1,9.9,57.9,26.4,86.3,31.5c20.4,3.7,9.9,2.2,24.9-9.4c8.9-6.9,19.2-10.4,30.3-10.8c46.7-1.9,72.9,56.2,39.9,89.9
		c-29.3,30-81.4,14-89.7-26.7c-1.4-6.8,0.4-15.7-2.5-20.2c-4.4-6.6-30.2-11-39-14.3c-22.4-8.2-57.7-29.3-81.9-28.6
		c-21.1,0.6-49.7,18.2-69.2,25.3c-9.1,3.3-36.6,8.1-42.2,15.4c-3.6,4.6-1.4,13.3-2.9,20.2c-9.2,43-66.2,56.6-93.4,21.9
		c-26.6-33.9-1.9-85.6,41.3-85.8c11.9-0.1,23.6,3.9,32.9,11.2c13,10.1,6.4,12.7,24.6,10c26.4-3.8,55.6-20.4,80.5-29.8
		c-58.5-21.3-116.9-42.7-175.4-64c-7.4-2.7-27.7-13.9-33.1-9.4c-7,5.8-11,30.5-13.4,39.5c-6.3,24-10.1,49.7-11.3,74.5
		c-2.3,45.9,7.9,94.7,21.4,138.4c14,45.6,36.5,122.5,84.1,139.9c62.1,22.6,124.2,45.3,186.4,68c31.7,11.6,130.5,67.2,152.3,26.5
		c4.6-8.6,1.7-21.8,7.9-31.6c5.8-9.2,14.5-16.4,24.4-20.6c21.6-9,47.8-2.3,62.2,16.3c31.4,40.6-10.6,99.3-59,82.7
		c-11.6-4-19.1-19.4-28.2-22.5c-9.9-3.4-27.3,13.7-37.9,13.7c-28.9,0.1-69.1-23.6-96.3-33.6c-54.8-20-109.4-41.7-164.5-61.1
		c-15.5-5.5-54.3-25.1-46.8-15.8s12.7,16,19.8,23.8c141.8,156.1,456,234.8,582.8,25.6c2.7-4.4,12.4-16.2,10.9-20.6
		c-1.6-4.9-41.2-15-45.2-16.5c-34.5-12.6-68.9-25.2-103.4-37.7c-32.3-11.8-64.7-23.6-97-35.4c-15.1-5.5-30.2-11-45.3-16.5
		c-26-9.5-18.7,0.3-38.8,11.5c-51.7,28.9-104.6-40.2-63.8-83.1c16.8-17.7,45.2-21.4,66.1-8.4c10.3,6.4,18.1,16.9,21.9,28.3
		c2,5.9,0.1,15.7,2.6,20.3c5.1,9.3,12.8,10.1,25.7,14.8c73.6,26.9,147.2,53.7,220.9,80.6c13.4,4.9,44.9,22.8,58.5,21.3
		c13.2-1.4,15.1-20.1,19.2-35.6C256.3,556.1,259.6,518,257.9,480.8C255.4,427.6,258.5,494,257.9,480.8z M-281.7,556.6
		c-6.6,4-14.1,6.3-22.2,7.2c-24.9-78,7.6-167.7,76.7-211.5c2.4-0.7,13.6,13,11.9,17.6c0,0,0,0.2-0.1,0.3
		c-2.9,3.5-19.9,15.7-24.7,20.8c-9.2,9.9-18.6,21-25.3,32.3c-7.3,12.3-20.5,34.6-24,67.1C-292.5,519.2-286.5,542.8-281.7,556.6z
		 M-241.4,543.6c-8,5-15.1,6.7-21.6,7c-19-59.7,5.8-128.3,58.6-162c3.9,1.4,14.2,12.5,11.4,18.2c-1.9,3.8-26.2,24.5-30.3,30.1
		C-245.6,467.3-253,507.6-241.4,543.6z M-198.5,482c-7.3,14.7-0.6,45-2.5,48.6c-1.9,3.5-16.6,5.4-20.7,6.7
		c-12.6-41.7,3.8-87.9,40.3-111.7c5.9,2.9,16.8,16.2,12.2,19.5C-174.1,448.7-195.1,465.8-198.5,482
		C-202.1,499.1-190.9,466.7-198.5,482z M-12.8,420.6C-5,399.1,2.8,377.5,10.7,356c3-8.2,5.1-18.3,9.4-25.9c9.2-16.4,6-12.5,23.8-6
		c-12.5,34.5-25,69-37.6,103.5c-2.8-0.4-6.2-1.1-10-2.5C-7.4,423.6-10.5,422-12.8,420.6z M90.2,454c-68.3,0.7-68.1-105.7-0.3-106
		C158,347.7,158.6,454.6,90.2,454C61.5,454.3,118.5,454.2,90.2,454z M157.3,483.4c-2.4,0-11.5-0.1-15-5.9c-2.5-4.2-1-9.3,0.1-12.6
		c6.1-18.9,12.7-35,14.5-40.1c4.2-11.5,8.3-22.9,12.5-34.4c7.1-19.5,6.5-17.4,25.4-10.5C182.3,414.4,169.8,448.9,157.3,483.4z"/>
	<path id="XMLID_281_" class="st0" d="M130.5,5c0,0,38.4,21.3,43.4,25.3c17.4,13.9,33.3,29.6,49.1,45.3
		c21.8,21.7,75.2,64.3,73.3,98.7c-0.9,16-12.2,24.9-27.1,25c-6.9,0.1-12.2-5-18.6-5.2c-6.5-0.4-11.1-0.5-19.6,5
		c-15,7.7-32.5,44.7-48.9,46.2c-19.9,1.8-54.6-19.9-73.8-26.9c-24.6-9-49.2-18-73.8-26.9c-24.2-8.8-29.3-8.9-53.3-0.1
		c-48.5,17.8-97.1,35.4-145.7,53.2c-19.3,7.1-48.1,23.9-68.8,23.1c-24.3-1-55.7-20.3-78.7-28.8c-35.9-13.1-65.9-23.8-108.1-38.9
		s-39.1-10.7-39.1-15s17.4-30.3,28.1-43.3c9.9-11.9,20.8-22.7,32.6-32.2c70.3-57,171.7-73.3,261-61.5c30.6,4,60.6,11.3,89.8,21.3
		c31.8,10.8,59.5,29,90.2,41.4c18,7.3,15.8,3.5,31.3-11.9c8-8,36.3-27.6,38.5-38.2c2.8-13.1-14.1-24.3-6.4-39.9
		C110.2,11.8,120.6,5,130.5,5C134,5.3,130.5,5,130.5,5z"/>
	<path id="XMLID_282_" class="st0" d="M35.4,689.4C35.8,731.5-30,731-29.7,689C-29.4,647.1,35.6,647,35.4,689.4
		C35.6,705.9,35.5,671.3,35.4,689.4z"/>
	<path id="XMLID_283_" class="st0" d="M-431,340.7c-0.7-42.1,65.3-41.9,65.1,0.1C-366.1,382.8-431.1,383.2-431,340.7
		C-431.3,324.5-431.1,358.8-431,340.7z"/>
	<path id="XMLID_284_" class="st0" d="M-130.2,540.2c-41.9,0.8-41.6-65.7,0.3-65.3C-88.1,475.2-88,541.2-130.2,540.2
		C-146.5,540.6-112.4,540.6-130.2,540.2z"/>
	<path id="XMLID_285_" class="st0" d="M-24.5,343.4c0.6,42.1-65.1,42.2-65.2,0.2C-89.7,301.7-24.4,301-24.5,343.4
		C-24.3,360-24.4,325.1-24.5,343.4z"/>
	<path id="XMLID_286_" class="st0" d="M90.4,368.4c41.9-0.6,41.4,65.7-0.5,65.3C48.1,433.4,48.2,367.2,90.4,368.4
		C107.2,368.1,73.1,367.9,90.4,368.4z"/>
</g>
</svg>
