<?xml version="1.0" encoding="utf-8"?>
<!-- Generator: Adobe Illustrator 19.0.0, SVG Export Plug-In . SVG Version: 6.00 Build 0)  -->
<svg version="1.1" xmlns="http://www.w3.org/2000/svg" xmlns:xlink="http://www.w3.org/1999/xlink" x="0px" y="0px"
	 viewBox="0 0 800 800" style="enable-background:new 0 0 800 800;" xml:space="preserve">
<style type="text/css">
	.st0{fill:#006A5C;}
	.st1{fill:#0F6B5D;stroke:#000000;stroke-miterlimit:10;}
	.st2{fill:none;}
	.st3{fill:none;stroke:#FFFFFF;stroke-width:30;stroke-miterlimit:10;}
	.st4{fill:none;stroke:#FFFFFF;stroke-miterlimit:10;}
	.st5{display:none;}
	.st6{display:inline;fill:#0F6B5D;stroke:#000000;stroke-miterlimit:10;}
	.st7{display:inline;fill:none;stroke:#000000;stroke-miterlimit:10;}
	.st8{display:inline;fill:none;stroke:#ED1C24;stroke-miterlimit:10;}
</style>
<g id="Layer_1_copy">
</g>
<g id="content">
	<g id="wireless">
	</g>
	<g id="orhers">
		<g id="XMLID_3_">
			<path id="XMLID_48_" class="st0" d="M459.9,338c0,15.4-12.4,27.9-27.8,27.9c-15.3,0-27.8-12.5-27.8-27.9
				c0-15.4,12.5-27.9,27.8-27.9C447.4,310.1,459.9,322.6,459.9,338z"/>
			<path id="XMLID_26_" class="st0" d="M127.4,340.3c0,15.4-12.4,27.9-27.8,27.9c-15.3,0-27.8-12.5-27.8-27.9
				c0-15.4,12.5-27.9,27.8-27.9C115,312.4,127.4,324.9,127.4,340.3z"/>
			<path id="XMLID_97_" class="st0" d="M597.3,371.6c-15.3,0-27.8,12.5-27.8,27.9c0,15.4,12.4,27.9,27.8,27.9
				c15.3,0,27.8-12.5,27.8-27.9C625,384.1,612.6,371.6,597.3,371.6z M597.3,371.6c-15.3,0-27.8,12.5-27.8,27.9
				c0,15.4,12.4,27.9,27.8,27.9c15.3,0,27.8-12.5,27.8-27.9C625,384.1,612.6,371.6,597.3,371.6z M597.3,371.6
				c-15.3,0-27.8,12.5-27.8,27.9c0,15.4,12.4,27.9,27.8,27.9c15.3,0,27.8-12.5,27.8-27.9C625,384.1,612.6,371.6,597.3,371.6z
				 M597.3,371.6c-15.3,0-27.8,12.5-27.8,27.9c0,15.4,12.4,27.9,27.8,27.9c15.3,0,27.8-12.5,27.8-27.9
				C625,384.1,612.6,371.6,597.3,371.6z M597.3,371.6c-15.3,0-27.8,12.5-27.8,27.9c0,15.4,12.4,27.9,27.8,27.9
				c15.3,0,27.8-12.5,27.8-27.9C625,384.1,612.6,371.6,597.3,371.6z M597.3,371.6c-15.3,0-27.8,12.5-27.8,27.9
				c0,15.4,12.4,27.9,27.8,27.9c15.3,0,27.8-12.5,27.8-27.9C625,384.1,612.6,371.6,597.3,371.6z M501,660.8
				c-15.3,0-27.8,12.5-27.8,27.9c0,15.4,12.4,27.9,27.8,27.9c15.3,0,27.8-12.5,27.8-27.9C528.8,673.3,516.3,660.8,501,660.8z
				 M597.3,371.6c-15.3,0-27.8,12.5-27.8,27.9c0,15.4,12.4,27.9,27.8,27.9c15.3,0,27.8-12.5,27.8-27.9
				C625,384.1,612.6,371.6,597.3,371.6z M597.3,371.6c-15.3,0-27.8,12.5-27.8,27.9c0,15.4,12.4,27.9,27.8,27.9
				c15.3,0,27.8-12.5,27.8-27.9C625,384.1,612.6,371.6,597.3,371.6z M597.3,371.6c-15.3,0-27.8,12.5-27.8,27.9
				c0,15.4,12.4,27.9,27.8,27.9c15.3,0,27.8-12.5,27.8-27.9C625,384.1,612.6,371.6,597.3,371.6z M597.3,371.6
				c-15.3,0-27.8,12.5-27.8,27.9c0,15.4,12.4,27.9,27.8,27.9c15.3,0,27.8-12.5,27.8-27.9C625,384.1,612.6,371.6,597.3,371.6z
				 M597.3,371.6c-15.3,0-27.8,12.5-27.8,27.9c0,15.4,12.4,27.9,27.8,27.9c15.3,0,27.8-12.5,27.8-27.9
				C625,384.1,612.6,371.6,597.3,371.6z M597.3,371.6c-15.3,0-27.8,12.5-27.8,27.9c0,15.4,12.4,27.9,27.8,27.9
				c15.3,0,27.8-12.5,27.8-27.9C625,384.1,612.6,371.6,597.3,371.6z M728.9,638.1c47.3-106.3,31.5-246-28.3-359.1L505.8,208
				l-194.5,71l73,26.7c10.4-15.3,27.9-25.4,47.8-25.4c31.9,0,57.8,26,57.8,57.9c0,31.9-25.9,57.9-57.8,57.9
				c-31.8,0-57.8-26-57.8-57.9c0-1.4,0-2.8,0.2-4.1l-106.9-39l-110.4,40.3c0.2,1.7,0.2,3.4,0.2,5.1c0,31.9-25.9,57.9-57.8,57.9
				c-31.8,0-57.8-26-57.8-57.9c0-31.9,25.9-57.9,57.8-57.9c19.5,0,36.8,9.7,47.2,24.6l77-28.1l-196-71.6
				c-47.6,114.3-17,262.6,56,375.6L415.6,704h0l27.9-10.2c-0.2-1.7-0.2-3.4-0.2-5.1c0-31.9,25.9-57.9,57.8-57.9
				c31.8,0,57.8,26,57.8,57.9c0,31.9-25.9,57.9-57.8,57.9c-19.5,0-36.7-9.7-47.2-24.6L416,735.8l-0.3-0.7l-0.3,0.8L115.4,626.4
				c11.7,14.4,24.2,27.8,37.3,40.2c133.4,126.2,377.7,184,514.8,57.8c19.1-17.5,34.9-37.6,47.6-59.4l-294-107.3h0
				c-10.5,14.7-27.6,24.2-47,24.2c-31.8,0-57.8-26-57.8-57.9c0-31.9,25.9-57.9,57.8-57.9c31.8,0,57.8,26,57.8,57.9
				c0,1.9-0.1,3.7-0.3,5.5L728.9,638.1z M710.5,386.3L673,489.4l-28.2-10.2L682.3,376L710.5,386.3z M597.3,341.6
				c31.8,0,57.8,26,57.8,57.9c0,31.9-25.9,57.9-57.8,57.9c-31.9,0-57.8-26-57.8-57.9C539.5,367.6,565.4,341.6,597.3,341.6z
				 M518.3,315.2l28.2,10.2L509,428.5l-28.2-10.2L518.3,315.2z M174.5,558.2c-2-11.5-3-23.2-3-34.9c0-61.2,26.9-118.3,73.9-156.8
				l19,23.2c-40,32.7-62.9,81.4-62.9,133.5c0,10,0.8,20,2.5,29.8L174.5,558.2z M221.8,548.9c-1.5-8.8-2.3-17.8-2.3-26.8
				c0-46.6,20.7-90.3,56.8-119.8l19,23.2c-29.1,23.8-45.8,59-45.8,96.6c0,7.3,0.6,14.6,1.9,21.7L221.8,548.9z M299,522
				c0,4.4,0.4,8.8,1.1,13.1l-29.5,5.2c-1-6-1.6-12.1-1.6-18.2c0-32,14.3-61.8,39.2-81.9l18.8,23.4C309.2,477.9,299,499.2,299,522z
				 M597.3,427.4c15.3,0,27.8-12.5,27.8-27.9c0-15.4-12.5-27.9-27.8-27.9c-15.3,0-27.8,12.5-27.8,27.9
				C569.5,414.9,582,427.4,597.3,427.4z M597.3,371.6c-15.3,0-27.8,12.5-27.8,27.9c0,15.4,12.4,27.9,27.8,27.9
				c15.3,0,27.8-12.5,27.8-27.9C625,384.1,612.6,371.6,597.3,371.6z M597.3,371.6c-15.3,0-27.8,12.5-27.8,27.9
				c0,15.4,12.4,27.9,27.8,27.9c15.3,0,27.8-12.5,27.8-27.9C625,384.1,612.6,371.6,597.3,371.6z M597.3,371.6
				c-15.3,0-27.8,12.5-27.8,27.9c0,15.4,12.4,27.9,27.8,27.9c15.3,0,27.8-12.5,27.8-27.9C625,384.1,612.6,371.6,597.3,371.6z
				 M597.3,371.6c-15.3,0-27.8,12.5-27.8,27.9c0,15.4,12.4,27.9,27.8,27.9c15.3,0,27.8-12.5,27.8-27.9
				C625,384.1,612.6,371.6,597.3,371.6z M597.3,371.6c-15.3,0-27.8,12.5-27.8,27.9c0,15.4,12.4,27.9,27.8,27.9
				c15.3,0,27.8-12.5,27.8-27.9C625,384.1,612.6,371.6,597.3,371.6z M597.3,371.6c-15.3,0-27.8,12.5-27.8,27.9
				c0,15.4,12.4,27.9,27.8,27.9c15.3,0,27.8-12.5,27.8-27.9C625,384.1,612.6,371.6,597.3,371.6z M597.3,371.6
				c-15.3,0-27.8,12.5-27.8,27.9c0,15.4,12.4,27.9,27.8,27.9c15.3,0,27.8-12.5,27.8-27.9C625,384.1,612.6,371.6,597.3,371.6z
				 M597.3,371.6c-15.3,0-27.8,12.5-27.8,27.9c0,15.4,12.4,27.9,27.8,27.9c15.3,0,27.8-12.5,27.8-27.9
				C625,384.1,612.6,371.6,597.3,371.6z M597.3,371.6c-15.3,0-27.8,12.5-27.8,27.9c0,15.4,12.4,27.9,27.8,27.9
				c15.3,0,27.8-12.5,27.8-27.9C625,384.1,612.6,371.6,597.3,371.6z M597.3,371.6c-15.3,0-27.8,12.5-27.8,27.9
				c0,15.4,12.4,27.9,27.8,27.9c15.3,0,27.8-12.5,27.8-27.9C625,384.1,612.6,371.6,597.3,371.6z M374.1,496.2
				c-15.3,0-27.8,12.5-27.8,27.9c0,15.4,12.5,27.9,27.8,27.9c15.3,0,27.8-12.5,27.8-27.9C401.9,508.7,389.5,496.2,374.1,496.2z
				 M597.3,371.6c-15.3,0-27.8,12.5-27.8,27.9c0,15.4,12.4,27.9,27.8,27.9c15.3,0,27.8-12.5,27.8-27.9
				C625,384.1,612.6,371.6,597.3,371.6z M597.3,371.6c-15.3,0-27.8,12.5-27.8,27.9c0,15.4,12.4,27.9,27.8,27.9
				c15.3,0,27.8-12.5,27.8-27.9C625,384.1,612.6,371.6,597.3,371.6z"/>
			<path id="XMLID_12_" class="st1" d="M722.6,380.9"/>
			<path id="XMLID_25_" class="st2" d="M459.9,338c0,15.4-12.4,27.9-27.8,27.9c-15.3,0-27.8-12.5-27.8-27.9
				c0-15.4,12.5-27.9,27.8-27.9C447.4,310.1,459.9,322.6,459.9,338z"/>
			<path id="XMLID_18_" class="st2" d="M127.4,340.3c0,15.4-12.4,27.9-27.8,27.9c-15.3,0-27.8-12.5-27.8-27.9
				c0-15.4,12.5-27.9,27.8-27.9C115,312.4,127.4,324.9,127.4,340.3z"/>
			<path id="XMLID_96_" class="st2" d="M597.3,371.6c-15.3,0-27.8,12.5-27.8,27.9c0,15.4,12.4,27.9,27.8,27.9
				c15.3,0,27.8-12.5,27.8-27.9C625,384.1,612.6,371.6,597.3,371.6z M597.3,371.6c-15.3,0-27.8,12.5-27.8,27.9
				c0,15.4,12.4,27.9,27.8,27.9c15.3,0,27.8-12.5,27.8-27.9C625,384.1,612.6,371.6,597.3,371.6z M374.1,496.2
				c-15.3,0-27.8,12.5-27.8,27.9c0,15.4,12.5,27.9,27.8,27.9c15.3,0,27.8-12.5,27.8-27.9C401.9,508.7,389.5,496.2,374.1,496.2z
				 M374.1,496.2c-15.3,0-27.8,12.5-27.8,27.9c0,15.4,12.5,27.9,27.8,27.9c15.3,0,27.8-12.5,27.8-27.9
				C401.9,508.7,389.5,496.2,374.1,496.2z M374.1,496.2c-15.3,0-27.8,12.5-27.8,27.9c0,15.4,12.5,27.9,27.8,27.9
				c15.3,0,27.8-12.5,27.8-27.9C401.9,508.7,389.5,496.2,374.1,496.2z M374.1,496.2c-15.3,0-27.8,12.5-27.8,27.9
				c0,15.4,12.5,27.9,27.8,27.9c15.3,0,27.8-12.5,27.8-27.9C401.9,508.7,389.5,496.2,374.1,496.2z M374.1,496.2
				c-15.3,0-27.8,12.5-27.8,27.9c0,15.4,12.5,27.9,27.8,27.9c15.3,0,27.8-12.5,27.8-27.9C401.9,508.7,389.5,496.2,374.1,496.2z
				 M374.1,496.2c-15.3,0-27.8,12.5-27.8,27.9c0,15.4,12.5,27.9,27.8,27.9c15.3,0,27.8-12.5,27.8-27.9
				C401.9,508.7,389.5,496.2,374.1,496.2z M597.3,371.6c-15.3,0-27.8,12.5-27.8,27.9c0,15.4,12.4,27.9,27.8,27.9
				c15.3,0,27.8-12.5,27.8-27.9C625,384.1,612.6,371.6,597.3,371.6z M597.3,371.6c-15.3,0-27.8,12.5-27.8,27.9
				c0,15.4,12.4,27.9,27.8,27.9c15.3,0,27.8-12.5,27.8-27.9C625,384.1,612.6,371.6,597.3,371.6z M597.3,371.6
				c-15.3,0-27.8,12.5-27.8,27.9c0,15.4,12.4,27.9,27.8,27.9c15.3,0,27.8-12.5,27.8-27.9C625,384.1,612.6,371.6,597.3,371.6z
				 M597.3,371.6c-15.3,0-27.8,12.5-27.8,27.9c0,15.4,12.4,27.9,27.8,27.9c15.3,0,27.8-12.5,27.8-27.9
				C625,384.1,612.6,371.6,597.3,371.6z M501,660.8c-15.3,0-27.8,12.5-27.8,27.9c0,15.4,12.4,27.9,27.8,27.9
				c15.3,0,27.8-12.5,27.8-27.9C528.8,673.3,516.3,660.8,501,660.8z M597.3,371.6c-15.3,0-27.8,12.5-27.8,27.9
				c0,15.4,12.4,27.9,27.8,27.9c15.3,0,27.8-12.5,27.8-27.9C625,384.1,612.6,371.6,597.3,371.6z M597.3,371.6
				c-15.3,0-27.8,12.5-27.8,27.9c0,15.4,12.4,27.9,27.8,27.9c15.3,0,27.8-12.5,27.8-27.9C625,384.1,612.6,371.6,597.3,371.6z
				 M597.3,371.6c-15.3,0-27.8,12.5-27.8,27.9c0,15.4,12.4,27.9,27.8,27.9c15.3,0,27.8-12.5,27.8-27.9
				C625,384.1,612.6,371.6,597.3,371.6z M597.3,371.6c-15.3,0-27.8,12.5-27.8,27.9c0,15.4,12.4,27.9,27.8,27.9
				c15.3,0,27.8-12.5,27.8-27.9C625,384.1,612.6,371.6,597.3,371.6z M597.3,371.6c-15.3,0-27.8,12.5-27.8,27.9
				c0,15.4,12.4,27.9,27.8,27.9c15.3,0,27.8-12.5,27.8-27.9C625,384.1,612.6,371.6,597.3,371.6z M597.3,371.6
				c-15.3,0-27.8,12.5-27.8,27.9c0,15.4,12.4,27.9,27.8,27.9c15.3,0,27.8-12.5,27.8-27.9C625,384.1,612.6,371.6,597.3,371.6z
				 M728.9,638.1c47.3-106.3,31.5-246-28.3-359.1L505.8,208l-194.5,71l73,26.7c10.4-15.3,27.9-25.4,47.8-25.4
				c31.9,0,57.8,26,57.8,57.9c0,31.9-25.9,57.9-57.8,57.9c-31.8,0-57.8-26-57.8-57.9c0-1.4,0-2.8,0.2-4.1l-106.9-39l-110.4,40.3
				c0.2,1.7,0.2,3.4,0.2,5.1c0,31.9-25.9,57.9-57.8,57.9c-31.8,0-57.8-26-57.8-57.9c0-31.9,25.9-57.9,57.8-57.9
				c19.5,0,36.8,9.7,47.2,24.6l77-28.1l-196-71.6c-47.6,114.3-17,262.6,56,375.6L415.6,704h0l27.9-10.2c-0.2-1.7-0.2-3.4-0.2-5.1
				c0-31.9,25.9-57.9,57.8-57.9c31.8,0,57.8,26,57.8,57.9c0,31.9-25.9,57.9-57.8,57.9c-19.5,0-36.7-9.7-47.2-24.6L416,735.8
				l-0.3-0.7l-0.3,0.8L115.4,626.4c11.7,14.4,24.2,27.8,37.3,40.2c133.4,126.2,377.7,184,514.8,57.8c19.1-17.5,34.9-37.6,47.6-59.4
				l-294-107.3h0c-10.5,14.7-27.6,24.2-47,24.2c-31.8,0-57.8-26-57.8-57.9c0-31.9,25.9-57.9,57.8-57.9c31.8,0,57.8,26,57.8,57.9
				c0,1.9-0.1,3.7-0.3,5.5L728.9,638.1z M710.5,386.3L673,489.4l-28.2-10.2L682.3,376L710.5,386.3z M597.3,341.6
				c31.8,0,57.8,26,57.8,57.9c0,31.9-25.9,57.9-57.8,57.9c-31.9,0-57.8-26-57.8-57.9C539.5,367.6,565.4,341.6,597.3,341.6z
				 M518.3,315.2l28.2,10.2L509,428.5l-28.2-10.2L518.3,315.2z M174.5,558.2c-2-11.5-3-23.2-3-34.9c0-61.2,26.9-118.3,73.9-156.8
				l19,23.2c-40,32.7-62.9,81.4-62.9,133.5c0,10,0.8,20,2.5,29.8L174.5,558.2z M221.8,548.9c-1.5-8.8-2.3-17.8-2.3-26.8
				c0-46.6,20.7-90.3,56.8-119.8l19,23.2c-29.1,23.8-45.8,59-45.8,96.6c0,7.3,0.6,14.6,1.9,21.7L221.8,548.9z M299,522
				c0,4.4,0.4,8.8,1.1,13.1l-29.5,5.2c-1-6-1.6-12.1-1.6-18.2c0-32,14.3-61.8,39.2-81.9l18.8,23.4C309.2,477.9,299,499.2,299,522z
				 M597.3,427.4c15.3,0,27.8-12.5,27.8-27.9c0-15.4-12.5-27.9-27.8-27.9c-15.3,0-27.8,12.5-27.8,27.9
				C569.5,414.9,582,427.4,597.3,427.4z M597.3,371.6c-15.3,0-27.8,12.5-27.8,27.9c0,15.4,12.4,27.9,27.8,27.9
				c15.3,0,27.8-12.5,27.8-27.9C625,384.1,612.6,371.6,597.3,371.6z M597.3,371.6c-15.3,0-27.8,12.5-27.8,27.9
				c0,15.4,12.4,27.9,27.8,27.9c15.3,0,27.8-12.5,27.8-27.9C625,384.1,612.6,371.6,597.3,371.6z M597.3,371.6
				c-15.3,0-27.8,12.5-27.8,27.9c0,15.4,12.4,27.9,27.8,27.9c15.3,0,27.8-12.5,27.8-27.9C625,384.1,612.6,371.6,597.3,371.6z
				 M597.3,371.6c-15.3,0-27.8,12.5-27.8,27.9c0,15.4,12.4,27.9,27.8,27.9c15.3,0,27.8-12.5,27.8-27.9
				C625,384.1,612.6,371.6,597.3,371.6z M597.3,371.6c-15.3,0-27.8,12.5-27.8,27.9c0,15.4,12.4,27.9,27.8,27.9
				c15.3,0,27.8-12.5,27.8-27.9C625,384.1,612.6,371.6,597.3,371.6z M597.3,371.6c-15.3,0-27.8,12.5-27.8,27.9
				c0,15.4,12.4,27.9,27.8,27.9c15.3,0,27.8-12.5,27.8-27.9C625,384.1,612.6,371.6,597.3,371.6z M597.3,371.6
				c-15.3,0-27.8,12.5-27.8,27.9c0,15.4,12.4,27.9,27.8,27.9c15.3,0,27.8-12.5,27.8-27.9C625,384.1,612.6,371.6,597.3,371.6z
				 M597.3,371.6c-15.3,0-27.8,12.5-27.8,27.9c0,15.4,12.4,27.9,27.8,27.9c15.3,0,27.8-12.5,27.8-27.9
				C625,384.1,612.6,371.6,597.3,371.6z M597.3,371.6c-15.3,0-27.8,12.5-27.8,27.9c0,15.4,12.4,27.9,27.8,27.9
				c15.3,0,27.8-12.5,27.8-27.9C625,384.1,612.6,371.6,597.3,371.6z M597.3,371.6c-15.3,0-27.8,12.5-27.8,27.9
				c0,15.4,12.4,27.9,27.8,27.9c15.3,0,27.8-12.5,27.8-27.9C625,384.1,612.6,371.6,597.3,371.6z M374.1,496.2
				c-15.3,0-27.8,12.5-27.8,27.9c0,15.4,12.5,27.9,27.8,27.9c15.3,0,27.8-12.5,27.8-27.9C401.9,508.7,389.5,496.2,374.1,496.2z
				 M597.3,371.6c-15.3,0-27.8,12.5-27.8,27.9c0,15.4,12.4,27.9,27.8,27.9c15.3,0,27.8-12.5,27.8-27.9
				C625,384.1,612.6,371.6,597.3,371.6z M597.3,371.6c-15.3,0-27.8,12.5-27.8,27.9c0,15.4,12.4,27.9,27.8,27.9
				c15.3,0,27.8-12.5,27.8-27.9C625,384.1,612.6,371.6,597.3,371.6z"/>
			<path id="XMLID_19_" class="st0" d="M783.8,194.8c-7.8,7.8-24.6,5.1-45.5-5.6l-52.4,52.5l-9.7-3.5l-30.1-11L506,176.1l0-0.1
				l-238.3,87L41,180.2c9-16.1,19.8-31.4,32.5-45.5C185.7,10,401.6,21.3,552.9,117.6L610.3,60c-9.9-20.1-12.2-36.2-4.6-43.8
				C621.5,0.5,634.2-12.3,723.2,77C812.3,166.2,799.5,179,783.8,194.8z"/>
			<path id="XMLID_21_" class="st3" d="M249,360.1"/>
			<path id="XMLID_2_" class="st4" d="M249,360.1"/>
		</g>
	</g>
	<g id="wirefinal">
	</g>
</g>
<g id="Layer_1" class="st5">
	<path id="XMLID_15_" class="st6" d="M769.5,205.5l-12,12c-9.3,9.3-24.6,9.3-33.9,0l-6.9-6.9l-38.9,38.7
		C702.2,294.1,716,345.4,716,400c0,174.5-141.5,316-316,316S84,574.5,84,400S225.5,84,400,84c55.2,0,107.1,14.2,152.3,39l38.5-38.3
		l-7.3-7.3c-9.3-9.3-9.3-24.6,0-33.9l12-12c9.3-9.3,24.6-9.3,33.9,0l140,140C778.8,180.9,778.8,196.1,769.5,205.5z"/>
</g>
<g id="Layer_2" class="st5">
	<line id="XMLID_1_" class="st7" x1="800" y1="0" x2="0" y2="800"/>
	<rect id="XMLID_5_" x="43.5" y="43" class="st7" width="714" height="714"/>
	<line id="XMLID_4_" class="st7" x1="800" y1="253.7" x2="-0.7" y2="39.2"/>
	<line id="XMLID_7_" class="st8" x1="318.2" y1="318" x2="737.8" y2="470.8"/>
	<line id="XMLID_33_" class="st8" x1="43.5" y1="244.2" x2="362.6" y2="128.1"/>
	<line id="XMLID_34_" class="st8" x1="332.1" y1="427.2" x2="751.8" y2="580"/>
</g>
</svg>
